<svg xmlns="http://www.w3.org/2000/svg" xmlns:xlink="http://www.w3.org/1999/xlink" version="1.1" data-diagram-type="DESCRIPTION" style="width:1447px;height:1057px;background:#FFFFFF;" width="1447px" height="1057px" viewBox="0 0 1447 1057" zoomAndPan="magnify" preserveAspectRatio="none" contentStyleType="text/css"><?plantuml 1.2026.8?><defs/><g font-family="sans-serif" lengthAdjust="spacing"><g class="title" data-source-line="11"><text x="381.646" y="32.636" fill="#000" font-size="19" textLength="682.098" font-weight="700" font-family="Helvetica">Growth on Demand — How Capacity Is Added Without Redesign</text></g><!--cluster T0--><g class="cluster" data-qualified-name="T0" id="ent0001" data-source-line="13"><rect x="48.55" y="55.117" width="436" height="145.59" fill="#DCFCE7" style="stroke:#000;stroke-width:1;" rx="7" ry="7"/><text x="199.968" y="70.112" fill="#000" font-size="14" textLength="133.164" font-weight="700" font-family="Helvetica">TODAY — Proven</text><text x="184.683" y="86.409" fill="#000" font-size="14" textLength="163.734" font-weight="700" font-family="Helvetica">(measured &amp; tested)</text></g><!--cluster T1--><g class="cluster" data-qualified-name="T1" id="ent0004" data-source-line="18"><rect x="356.55" y="265.707" width="442" height="145.6" fill="#DBEAFE" style="stroke:#000;stroke-width:1;" rx="7" ry="7"/><text x="498.021" y="280.702" fill="#000" font-size="14" textLength="159.059" font-weight="700" font-family="Helvetica">STEP 1 — Low effort</text><text x="509.881" y="296.999" fill="#000" font-size="14" textLength="135.338" font-weight="700" font-family="Helvetica">(add read nodes)</text></g><!--cluster T2--><g class="cluster" data-qualified-name="T2" id="ent0007" data-source-line="23"><rect x="228.55" y="476.307" width="570" height="145.59" fill="#FEF3C7" style="stroke:#000;stroke-width:1;" rx="7" ry="7"/><text x="441.793" y="491.302" fill="#000" font-size="14" textLength="143.514" font-weight="700" font-family="Helvetica">STEP 2 — Low risk</text><text x="415.116" y="507.599" fill="#000" font-size="14" textLength="196.868" font-weight="700" font-family="Helvetica">(before volume forces it)</text></g><!--cluster T3--><g class="cluster" data-qualified-name="T3" id="ent0010" data-source-line="28"><rect x="786.55" y="686.897" width="518" height="145.6" fill="#FFE4E6" style="stroke:#000;stroke-width:1;" rx="7" ry="7"/><text x="957.154" y="701.892" fill="#000" font-size="14" textLength="176.791" font-weight="700" font-family="Helvetica">STEP 3 — Required for</text><text x="957.78" y="718.189" fill="#000" font-size="14" textLength="175.54" font-weight="700" font-family="Helvetica">regulated deployment</text></g><!--cluster T4--><g class="cluster" data-qualified-name="T4" id="ent0013" data-source-line="33"><rect x="1041.55" y="897.497" width="263" height="145.59" fill="#FCE7F3" style="stroke:#000;stroke-width:1;" rx="7" ry="7"/><text x="1083.964" y="912.492" fill="#000" font-size="14" textLength="178.172" font-weight="700" font-family="Helvetica">STEP 4 — Independent</text><text x="1091.6" y="928.789" fill="#000" font-size="14" textLength="162.9" font-weight="700" font-family="Helvetica">recovery procedures</text></g><!--entity A1--><g class="entity" data-qualified-name="T0.A1" id="ent0002" data-source-line="14"><rect x="72.54" y="114.117" width="142.026" height="62.594" fill="#FFF" style="stroke:#000;stroke-width:1;" rx="7" ry="7"/><rect x="194.566" y="119.117" width="15" height="10" fill="#FFF" style="stroke:#000;stroke-width:1;"/><rect x="192.566" y="121.117" width="4" height="2" fill="#FFF" style="stroke:#000;stroke-width:1;"/><rect x="192.566" y="125.117" width="4" height="2" fill="#FFF" style="stroke:#000;stroke-width:1;"/><text x="87.54" y="147.112" fill="#000" font-size="14" textLength="97.344" font-family="Helvetica">1 write leader</text><text x="87.54" y="163.409" fill="#000" font-size="14" textLength="102.026" font-family="Helvetica">+ 1 live mirror</text></g><!--entity A2--><g class="entity" data-qualified-name="T0.A2" id="ent0003" data-source-line="15"><rect x="249.64" y="114.117" width="191.826" height="62.594" fill="#FFF" style="stroke:#000;stroke-width:1;" rx="7" ry="7"/><rect x="421.466" y="119.117" width="15" height="10" fill="#FFF" style="stroke:#000;stroke-width:1;"/><rect x="419.466" y="121.117" width="4" height="2" fill="#FFF" style="stroke:#000;stroke-width:1;"/><rect x="419.466" y="125.117" width="4" height="2" fill="#FFF" style="stroke:#000;stroke-width:1;"/><text x="264.64" y="147.112" fill="#000" font-size="14" textLength="151.826" font-family="Helvetica">Read capacity spread</text><text x="264.64" y="163.409" fill="#000" font-size="14" textLength="128.577" font-family="Helvetica">across every node</text></g><!--entity B1--><g class="entity" data-qualified-name="T1.B1" id="ent0005" data-source-line="19"><rect x="380.26" y="324.707" width="176.575" height="62.594" fill="#FFF" style="stroke:#000;stroke-width:1;" rx="7" ry="7"/><rect x="536.835" y="329.707" width="15" height="10" fill="#FFF" style="stroke:#000;stroke-width:1;"/><rect x="534.835" y="331.707" width="4" height="2" fill="#FFF" style="stroke:#000;stroke-width:1;"/><rect x="534.835" y="335.707" width="4" height="2" fill="#FFF" style="stroke:#000;stroke-width:1;"/><text x="395.26" y="357.702" fill="#000" font-size="14" textLength="136.575" font-family="Helvetica">Grow reporting and</text><text x="395.26" y="373.999" fill="#000" font-size="14" textLength="135.064" font-family="Helvetica">customer enquiries</text></g><!--entity B2--><g class="entity" data-qualified-name="T1.B2" id="ent0006" data-source-line="20"><rect x="591.7" y="324.707" width="163.703" height="62.594" fill="#FFF" style="stroke:#000;stroke-width:1;" rx="7" ry="7"/><rect x="735.403" y="329.707" width="15" height="10" fill="#FFF" style="stroke:#000;stroke-width:1;"/><rect x="733.403" y="331.707" width="4" height="2" fill="#FFF" style="stroke:#000;stroke-width:1;"/><rect x="733.403" y="335.707" width="4" height="2" fill="#FFF" style="stroke:#000;stroke-width:1;"/><text x="606.7" y="357.702" fill="#000" font-size="14" textLength="123.703" font-family="Helvetica">No change to any</text><text x="606.7" y="373.999" fill="#000" font-size="14" textLength="77.226" font-family="Helvetica">application</text></g><!--entity C1a--><g class="entity" data-qualified-name="T2.C1a" id="ent0008" data-source-line="24"><rect x="252.08" y="535.307" width="260.951" height="62.594" fill="#FFF" style="stroke:#000;stroke-width:1;" rx="7" ry="7"/><rect x="493.031" y="540.307" width="15" height="10" fill="#FFF" style="stroke:#000;stroke-width:1;"/><rect x="491.031" y="542.307" width="4" height="2" fill="#FFF" style="stroke:#000;stroke-width:1;"/><rect x="491.031" y="546.307" width="4" height="2" fill="#FFF" style="stroke:#000;stroke-width:1;"/><text x="267.08" y="568.302" fill="#000" font-size="14" textLength="168.506" font-family="Helvetica">Divide the business into</text><text x="267.08" y="584.599" fill="#000" font-size="14" textLength="220.951" font-family="Helvetica">independent parts by customer</text></g><!--entity C2a--><g class="entity" data-qualified-name="T2.C2a" id="ent0009" data-source-line="25"><rect x="547.76" y="535.307" width="207.583" height="62.594" fill="#FFF" style="stroke:#000;stroke-width:1;" rx="7" ry="7"/><rect x="735.343" y="540.307" width="15" height="10" fill="#FFF" style="stroke:#000;stroke-width:1;"/><rect x="733.343" y="542.307" width="4" height="2" fill="#FFF" style="stroke:#000;stroke-width:1;"/><rect x="733.343" y="546.307" width="4" height="2" fill="#FFF" style="stroke:#000;stroke-width:1;"/><text x="562.76" y="568.302" fill="#000" font-size="14" textLength="167.583" font-family="Helvetica">Each part keeps its own</text><text x="562.76" y="584.599" fill="#000" font-size="14" textLength="141.668" font-family="Helvetica">leader + own mirror</text></g><!--entity D1a--><g class="entity" data-qualified-name="T3.D1a" id="ent0011" data-source-line="29"><rect x="810.25" y="745.897" width="204.609" height="62.594" fill="#FFF" style="stroke:#000;stroke-width:1;" rx="7" ry="7"/><rect x="994.859" y="750.897" width="15" height="10" fill="#FFF" style="stroke:#000;stroke-width:1;"/><rect x="992.859" y="752.897" width="4" height="2" fill="#FFF" style="stroke:#000;stroke-width:1;"/><rect x="992.859" y="756.897" width="4" height="2" fill="#FFF" style="stroke:#000;stroke-width:1;"/><text x="825.25" y="778.892" fill="#000" font-size="14" textLength="152.127" font-family="Helvetica">Zero-lag confirmation</text><text x="825.25" y="795.189" fill="#000" font-size="14" textLength="164.609" font-family="Helvetica">before a change is final</text></g><!--entity D2a--><g class="entity" data-qualified-name="T3.D2a" id="ent0012" data-source-line="30"><rect x="1049.6" y="745.897" width="211.91" height="62.594" fill="#FFF" style="stroke:#000;stroke-width:1;" rx="7" ry="7"/><rect x="1241.51" y="750.897" width="15" height="10" fill="#FFF" style="stroke:#000;stroke-width:1;"/><rect x="1239.51" y="752.897" width="4" height="2" fill="#FFF" style="stroke:#000;stroke-width:1;"/><rect x="1239.51" y="756.897" width="4" height="2" fill="#FFF" style="stroke:#000;stroke-width:1;"/><text x="1064.6" y="778.892" fill="#000" font-size="14" textLength="130.765" font-family="Helvetica">Remove the single</text><text x="1064.6" y="795.189" fill="#000" font-size="14" textLength="171.91" font-family="Helvetica">gateway as a bottleneck</text></g><!--entity E1a--><g class="entity" data-qualified-name="T4.E1a" id="ent0014" data-source-line="34"><rect x="1065.54" y="956.497" width="196.017" height="62.594" fill="#FFF" style="stroke:#000;stroke-width:1;" rx="7" ry="7"/><rect x="1241.557" y="961.497" width="15" height="10" fill="#FFF" style="stroke:#000;stroke-width:1;"/><rect x="1239.557" y="963.497" width="4" height="2" fill="#FFF" style="stroke:#000;stroke-width:1;"/><rect x="1239.557" y="967.497" width="4" height="2" fill="#FFF" style="stroke:#000;stroke-width:1;"/><text x="1080.54" y="989.492" fill="#000" font-size="14" textLength="156.017" font-family="Helvetica">Automatic rebuild of a</text><text x="1080.54" y="1005.789" fill="#000" font-size="14" textLength="107.878" font-family="Helvetica">discarded node</text></g><g class="entity" data-qualified-name="GMN19" id="ent0020" data-source-line="43"><path d="M11,320.177 L11,391.841 A7,7 0 0 0 18,398.841 L325.104,398.841 A7,7 0 0 0 332.104,391.841 L332.104,323.177 L322.104,313.177 L18,313.177 A7,7 0 0 0 11,320.177" style="stroke:#000;stroke-width:1;" fill="#F0FDF4"/><path d="M322.104,313.177 L322.104,319.677 A3.5,3.5 0 0 0 325.604,323.177 L332.104,323.177 L322.104,313.177" style="stroke:#000;stroke-width:1;" fill="#F0FDF4"/><text x="17" y="330.244" fill="#000" font-size="13" textLength="199.596" font-weight="700" font-family="Helvetica">What scales first, and why:</text><text x="17" y="345.377" fill="#000" font-size="13" textLength="293.097" font-family="Helvetica">enquiries are cheap to add and carry no risk.</text><text x="17" y="360.51" fill="#000" font-size="13" textLength="282.261" font-family="Helvetica">Recording changes is the expensive axis —</text><text x="17" y="375.643" fill="#000" font-size="13" textLength="262.812" font-family="Helvetica">it is scaled last, by dividing the business</text><text x="17" y="390.775" fill="#000" font-size="13" textLength="300.104" font-family="Helvetica">into parts, never by making one server faster.</text></g><g class="entity" data-qualified-name="GMN22" id="ent0023" data-source-line="51"><path d="M441,756.497 L441,797.896 A7,7 0 0 0 448,804.896 L755.104,804.896 A7,7 0 0 0 762.104,797.896 L762.104,759.497 L752.104,749.497 L448,749.497 A7,7 0 0 0 441,756.497" style="stroke:#000;stroke-width:1;" fill="#FFFBEB"/><path d="M752.104,749.497 L752.104,755.997 A3.5,3.5 0 0 0 755.604,759.497 L762.104,759.497 L752.104,749.497" style="stroke:#000;stroke-width:1;" fill="#FFFBEB"/><text x="447" y="766.564" fill="#000" font-size="13" textLength="169.787" font-weight="700" font-family="Helvetica">Key business property:</text><text x="620.919" y="766.564" fill="#000" font-size="13" textLength="126.185" font-family="Helvetica">growth is bought in</text><text x="447" y="781.697" fill="#000" font-size="13" textLength="298.264" font-family="Helvetica">steps, each of which is reversible and none of</text><text x="447" y="796.83" fill="#000" font-size="13" textLength="283.372" font-family="Helvetica">which requires applications to be rewritten.</text></g><!--link T0 to T1--><g class="link" data-entity-1="ent0001" data-entity-2="ent0004" id="lnk15" data-source-line="37" data-link-type="dependency"><path d="M484.776,146.504 C484.947,146.507 485.12,146.511 485.295,146.516 C485.998,146.532 486.739,146.552 487.518,146.574 C493.753,146.754 502.419,147.129 512.92,147.906 C533.921,149.46 562.263,152.62 593.184,159.032 C655.025,171.857 727.18,197.692 771.55,249.707 C775.348,254.16 778.498,259.111 781.104,264.37 C781.266,264.699 779.267,260.52 779.426,260.851" style="stroke:#22C55E;stroke-width:1.8;" fill="none" id="T0-to-T1"/><polygon points="781.586,265.36,781.305,255.515,779.426,260.851,774.09,258.971,781.586,265.36" fill="#22C55E" style="stroke:#22C55E;stroke-width:1.8;stroke-linejoin:miter;stroke-miterlimit:10;"/><text x="761.2" y="237.774" fill="#000" font-size="13" textLength="124.941" font-family="Helvetica">read volume grows</text></g><!--link T1 to T2--><g class="link" data-entity-1="ent0004" data-entity-2="ent0007" id="lnk16" data-source-line="38" data-link-type="dependency"><path d="M790.55,412.212 C790.55,412.565 790.55,412.919 790.55,413.274 C790.55,413.984 790.55,414.697 790.55,415.415 C790.55,418.284 790.55,421.211 790.55,424.184 C790.55,436.078 790.55,448.712 790.55,461.345 C790.55,464.503 790.55,467.661 790.55,470.808 C790.55,472.381 790.55,473.951 790.55,475.518 C790.55,475.713 790.55,470.909 790.55,471.105" style="stroke:#0EA5E9;stroke-width:1.8;" fill="none" id="T1-to-T2"/><polygon points="790.55,476.105,794.55,467.105,790.55,471.105,786.55,467.105,790.55,476.105" fill="#0EA5E9" style="stroke:#0EA5E9;stroke-width:1.8;stroke-linejoin:miter;stroke-miterlimit:10;"/><text x="791.55" y="448.374" fill="#000" font-size="13" textLength="128.064" font-family="Helvetica">write volume grows</text></g><!--link T2 to T3--><g class="link" data-entity-1="ent0007" data-entity-2="ent0010" id="lnk17" data-source-line="39" data-link-type="dependency"><path d="M799.048,568.144 C800.049,568.21 801.133,568.284 802.298,568.363 C804.627,568.522 807.278,568.708 810.23,568.92 C822.035,569.769 838.64,571.05 858.627,572.823 C898.601,576.368 952.104,581.881 1007.799,589.845 C1119.188,605.772 1239.34,631.502 1277.55,670.897 C1281.624,675.097 1284.983,679.858 1287.741,684.978 C1287.913,685.298 1288.083,685.619 1288.251,685.942 C1288.335,686.103 1286.145,681.811 1286.228,681.973" style="stroke:#F59E0B;stroke-width:1.8;" fill="none" id="T2-to-T3"/><polygon points="1288.501,686.427,1287.972,676.592,1286.228,681.973,1280.847,680.229,1288.501,686.427" fill="#F59E0B" style="stroke:#F59E0B;stroke-width:1.8;stroke-linejoin:miter;stroke-miterlimit:10;"/><text x="1267.76" y="658.964" fill="#000" font-size="13" textLength="152.42" font-family="Helvetica">regulatory requirement</text></g><!--link T3 to T4--><g class="link" data-entity-1="ent0010" data-entity-2="ent0013" id="lnk18" data-source-line="40" data-link-type="dependency"><path d="M1296.55,833.4 C1296.55,833.753 1296.55,834.107 1296.55,834.462 C1296.55,835.172 1296.55,835.885 1296.55,836.602 C1296.55,839.472 1296.55,842.398 1296.55,845.372 C1296.55,857.265 1296.55,869.898 1296.55,882.531 C1296.55,885.689 1296.55,888.847 1296.55,891.994 C1296.55,893.567 1296.55,895.137 1296.55,896.703 C1296.55,896.899 1296.55,892.095 1296.55,892.291" style="stroke:#DC2626;stroke-width:1.8;" fill="none" id="T3-to-T4"/><polygon points="1296.55,897.291,1300.55,888.291,1296.55,892.291,1292.55,888.291,1296.55,897.291" fill="#DC2626" style="stroke:#DC2626;stroke-width:1.8;stroke-linejoin:miter;stroke-miterlimit:10;"/><text x="1297.55" y="869.564" fill="#000" font-size="13" textLength="133.84" font-family="Helvetica">operational maturity</text></g><!--link T0 to GMN19--><g class="link" data-entity-1="ent0001" data-entity-2="ent0020" id="lnk21" data-source-line="43" data-link-type="association"><path d="M467.69,200.911 C467.64,201.024 467.589,201.137 467.537,201.25 C467.435,201.477 467.331,201.702 467.227,201.927 C466.389,203.728 465.478,205.491 464.488,207.202 C462.509,210.623 460.213,213.832 457.55,216.707 C427.76,248.897 404.6,231.817 364.55,249.707 C323.08,268.237 278.46,292.297 242.58,312.737" style="stroke:#334155;stroke-width:1.8;stroke-dasharray:7,7;" fill="none" id="T0-GMN19"/></g><!--link T2 to GMN22--><g class="link" data-entity-1="ent0007" data-entity-2="ent0023" id="lnk24" data-source-line="51" data-link-type="association"><path d="M779.498,622.23 C779.451,622.347 779.405,622.464 779.358,622.581 C779.264,622.815 779.169,623.049 779.073,623.283 C778.882,623.749 778.688,624.214 778.49,624.678 C778.095,625.605 777.687,626.526 777.266,627.439 C775.582,631.09 773.685,634.611 771.55,637.897 C740.58,685.607 687.8,724.757 649.25,749.077" style="stroke:#334155;stroke-width:1.8;stroke-dasharray:7,7;" fill="none" id="T2-GMN22"/></g><?plantuml-src RLNRZjis47tNLqozGD5kiekrR6-xUIZWYzm43TB0CH2qTHzeSMmHbaY5fEoeGO5-HB-mNz93ohlhTTOFXYsUcJapSmxrZI-uOgfBeNJYTahNmegArYBVRQrfj9oQqbYwcCVF2S8LGfg3qblQYDBnoOdaZMXAFpVQlnF8_PhBFNkLYnDCJ9qRgzbIVtXoCBRM78ur1uDXVpGwFrmMAjzfTexwrp-U77hbImv5FwY_cFftpnxvjcHQcr8cINn8FoEZByXecd4bjAJ__lcNNfi3JKKjSkLRUkDeB2LB-gXyOHfF2vRir5OdYUNS2xr5cjxorzdujnZytfezwvN-hcBX6el0Rycpyoo_xv5mjBoXYzbqFir-e2y9KMwgscZMddfzEbZbcKeMakrAlw0-bMhFL2aqRcFqkFyqPW4ivVTSNMtnVwL5RWq6n7ksBMaZkOjDax-VaFwmpDwZHc3z5YtpPcEi1tCX9OL4CTGTQVT1UvADvzavxJ12m6l41ZbWY2kTDywR2ijb_QbHLh6BIIPdxDyPoWkGOV86WIsOrtK9gNXbT1VnBEVqWRDLRWV6QmPrfhqf6oWEltDsfFoHUWhzPlF1zAk9pzHUIHGl88h6gQWgfRrPQQKbrumlm20YxsZTqdrNCUkqBvucoqHUH2pjcEjGtf4vG0dTFkb5-7Uwosagdcjk49jRS1WSr8DcLjhojYa5D0HtrQLfArJiUXi4RsR3xFQyjz_PcgjIRF5CRvIjuanN-ZWfSJzuvMYZj2XZjjbvJmkkeEOu88m775Tw2ne7qGQuW9KyNAGvttNnptSqZ1szUHnfQ2WtKPsrDJbB-AHJo7A8Vk2D-U2ydt63sQE975fRDwgKP3OaLbegbmiR3FeWzAmVQS1fLtzSfEbqDCh-lFefIFWLzQAmZqB15NTmlGG70Dvaur5s5u5f07PcF4Ec0JaVtMKtauWST2dZTWpQiTtQuduId08zcwQtwMr43mFQr6pZCaH9QAX1cRQN9DfuZlCqLUWiN1Fpc_biFiGOBYy_5i8J6YqvxCiw_p8OZGv5--ho4eW7dv70TlE2HHqz1IS772OKRuBebslW5vY_bS6ldGvS449OCt_6ZbouTSHdFCBYW5O-7CVoaaeHgiCEChWdf3ZrJq33GPrfNf8ETr00Ls8Ne5WcERRXuGPvs5uda0I5vhyUGHhVEvDi4aVm2xUFBeLiC4OVke-xmHqEXclJR0jmrGX0yXe4EBWIoGvuRKIC3OoSMaET8bO68xD1G8SuBX1pVBo9N1Zbcd4MDE5Pdv3-7m00?></g></svg>